<?xml version="1.0" encoding="utf-8"?>
<!-- Generator: Adobe Illustrator 26.5.0, SVG Export Plug-In . SVG Version: 6.00 Build 0)  -->
<svg version="1.1" id="Layer_1" xmlns="http://www.w3.org/2000/svg" xmlns:xlink="http://www.w3.org/1999/xlink" x="0px" y="0px"
	 viewBox="0 0 107 107" style="enable-background:new 0 0 107 107;" xml:space="preserve">
<style type="text/css">
	.st0{fill-rule:evenodd;clip-rule:evenodd;fill:#303030;}
	@media (prefers-color-scheme: dark) {
		.st0{ fill: #ffffff; }
	}
</style>
<path class="st0" d="M53.5,0C24,0,0,24,0,53.5C0,83,24,107,53.5,107C83,107,107,83,107,53.5S83,0,53.5,0z M62,78.1
	c-3.4,0.7-8.6,0.9-12.2,0.1c-2.7-0.5-5-1.5-7.2-2.9c-0.6-0.4-1.6-1-2.4-0.9c-1.5,0.1-2.4,2.2-3.1,3.2c-1.4,0-2.9,0-4.3,0
	c0-5.9,0-11.9,0-17.8c1.4-0.2,2.8-0.3,4.3-0.4C38,67.1,43,71.4,49.9,72.8c3.7,0.8,8.4,0.6,11.4-0.7c3-1.3,5.1-4.3,4.7-8.3
	c-0.2-1.7-1.5-2.9-2.8-3.6c-2.1-1.1-4.8-1.6-7.5-2C44.7,56.4,33.6,55,33.2,42.5c-0.3-9.2,6.2-13.7,14.8-14.1
	c5.6-0.3,9.7,0.5,13.3,2.3c1.1,0.5,2.4,1.6,3.7,1.5c1.6-0.1,2.3-1.7,3.3-2.7c1.1,0,2.3,0,3.4,0c0,5.6,0,11.3,0,16.9
	c-1.5,0.2-2.9,0.4-4.4,0.6c-0.9-6.2-3.8-10.2-9.2-12.1c-5.3-1.9-14.7-1.5-16.9,2.9c-0.7,1.5-0.8,3.8-0.1,5.2c1.4,2.6,5.6,3.8,9,4.4
	c4,0.8,7.7,1.3,11.2,2.2c6.9,1.8,12.7,5.1,12.7,14C74.1,72.2,69.2,76.6,62,78.1z"/>
</svg>
